<?xml version="1.0" encoding="utf-8"?>
<!-- Generator: Adobe Illustrator 26.3.1, SVG Export Plug-In . SVG Version: 6.00 Build 0)  -->
<svg version="1.1" id="Capa_1" xmlns="http://www.w3.org/2000/svg" xmlns:xlink="http://www.w3.org/1999/xlink" x="0px" y="0px"
	 viewBox="0 0 231 48" style="enable-background:new 0 0 231 48;" xml:space="preserve">
<style type="text/css">
	.st0{opacity:0.8;}
	.st1{fill:#346A8A;}
	.st2{opacity:0.85;}
	.st3{fill:#FDCA09;}
	.st4{opacity:0.9;}
	.st5{fill:#5FA831;}
	.st6{opacity:0.95;}
	.st7{fill:#E95A0C;}
	.st8{fill:#FFFFFF;}
</style>
<g>
	<g class="st0">
		<path class="st1" d="M19,15.6c-4-3.9-9.6-6.6-13.6-7.5c-0.1,0-0.1,0-0.2-0.1C5.2,8,5.2,7.8,5.4,7.7l5.3-5.4
			c0.9-0.9,9.2,2.4,14.3,7.5l3.3,3.3c4.5,4.4,7.7,12.3,6.7,13.3l-5.1,5.2c-0.1,0.1-0.3,0.2-0.4,0c-1.1-4.3-3.9-9.6-7-12.7L19,15.6z"
			/>
	</g>
	<g class="st2">
		<path class="st3" d="M21.3,20.8c3.9-3.9,6.7-9.6,7.6-13.6c0-0.1,0-0.1,0.1-0.2c0.1-0.1,0.2,0,0.3,0.1l5.4,5.3
			c0.9,0.9-2.4,9.1-7.5,14.3L23.9,30c-4.4,4.5-12.3,7.6-13.4,6.6l-5.2-5.1c-0.1-0.1-0.2-0.3,0-0.4c4.3-1.1,9.7-3.9,12.8-7L21.3,20.8
			z"/>
	</g>
	<g class="st4">
		<path class="st5" d="M16.4,23.5c3.9,3.9,9.6,6.6,13.6,7.5c0.1,0,0.1,0,0.2,0.1c0.1,0.1,0,0.2-0.1,0.3l-5.3,5.4
			c-0.9,0.9-9.2-2.4-14.3-7.5l-3.3-3.3c-4.5-4.4-7.7-12.3-6.7-13.3l5.1-5.2c0.1-0.1,0.3-0.2,0.4,0c1.1,4.3,3.9,9.6,7,12.7L16.4,23.5
			z"/>
	</g>
	<g class="st6">
		<path class="st7" d="M13.5,18C9.6,21.9,6.8,27.6,6,31.6c0,0.1,0,0.1-0.1,0.2c-0.1,0.1-0.2,0-0.3-0.1l-5.4-5.3
			c-0.9-0.9,2.4-9.1,7.5-14.3l3.3-3.3c4.4-4.5,12.3-7.7,13.4-6.6l5.2,5.1c0.1,0.1,0.2,0.3,0,0.4c-4.3,1.1-9.7,3.9-12.7,7L13.5,18z"
			/>
	</g>
</g>
<g>
	<path class="st8" d="M63.9,19.6c0,5.3-3.2,8.9-8.1,8.9c-2.4,0-4.4-1-5.6-2.7v8.9h-5V10.8h5v2.6c1.2-1.8,3.2-2.7,5.5-2.7
		C60.6,10.6,63.9,14.2,63.9,19.6z M58.8,19.4c0-2.8-1.8-4.8-4.3-4.8c-2.6,0-4.4,2-4.4,4.8c0,2.9,1.8,4.9,4.4,4.9
		C57.1,24.3,58.8,22.3,58.8,19.4z"/>
	<path class="st8" d="M77.4,26.2c-1.2,1.5-3.1,2.3-5.5,2.3c-3.7,0-6-2.3-6-5.5c0-3.3,2.4-5.2,6.7-5.3h4.8v-0.3
		c0-1.8-1.2-2.9-3.6-2.9c-1.6,0-3.4,0.5-5.2,1.5l-1.6-3.4c2.6-1.3,4.9-2,7.9-2c4.7,0,7.4,2.3,7.4,6.3l0,11.4h-4.9L77.4,26.2
		L77.4,26.2z M77.3,22.3v-1.6h-3.9c-1.9,0-2.9,0.6-2.9,2c0,1.3,1,2.2,2.7,2.2C75.4,24.9,77,23.8,77.3,22.3z"/>
	<path class="st8" d="M91.6,13.9c1.2-2.1,3.2-3.3,5.8-3.4v4.7c-3.6-0.3-5.8,1.6-5.8,4.6v8.4h-5V10.8h5V13.9z"/>
	<path class="st8" d="M109.7,26.2c-1.2,1.5-3.1,2.3-5.5,2.3c-3.7,0-6-2.3-6-5.5c0-3.3,2.4-5.2,6.7-5.3h4.8v-0.3
		c0-1.8-1.2-2.9-3.6-2.9c-1.6,0-3.4,0.5-5.2,1.5l-1.6-3.4c2.6-1.3,4.9-2,7.9-2c4.7,0,7.4,2.3,7.4,6.3l0,11.4h-4.9L109.7,26.2
		L109.7,26.2z M109.7,22.3v-1.6h-3.9c-1.9,0-2.9,0.6-2.9,2c0,1.3,1,2.2,2.7,2.2C107.7,24.9,109.4,23.8,109.7,22.3z"/>
	<path class="st8" d="M137.9,19.6c0,5.3-3.2,8.9-8.1,8.9c-2.4,0-4.4-1-5.6-2.7v8.9h-5V10.8h5v2.6c1.2-1.8,3.2-2.7,5.5-2.7
		C134.5,10.6,137.9,14.2,137.9,19.6z M132.8,19.4c0-2.8-1.8-4.8-4.3-4.8c-2.6,0-4.4,2-4.4,4.8c0,2.9,1.8,4.9,4.4,4.9
		C131,24.3,132.8,22.3,132.8,19.4z"/>
	<path class="st8" d="M157.3,21h-12.5c0.6,2.2,2.3,3.5,4.5,3.5c1.7,0,3.2-0.6,4.4-1.8l2.6,2.7c-1.8,1.9-4.3,3.1-7.5,3.1
		c-5.6,0-9.1-3.6-9.1-8.9c0-5.4,3.7-9,9-9C154.8,10.6,157.7,14.7,157.3,21z M152.6,18.1c-0.1-2.3-1.6-3.8-3.9-3.8
		c-2.2,0-3.7,1.5-4.1,3.8H152.6z"/>
	<path class="st8" d="M178.1,17.3v11h-5v-9.5c0-2.2-1.3-3.6-3.4-3.6c-2.5,0-4,1.9-4,4.5v8.6h-5V10.8h5v3.1c1.2-2.2,3.3-3.2,6.1-3.3
		C175.5,10.6,178.1,13.2,178.1,17.3z"/>
	<path class="st8" d="M193.2,27.3c-1.3,0.7-2.9,1.2-4.6,1.2c-3.1,0-5.5-1.8-5.5-5.4V15h-2.4v-3.4h2.4V6.7h5v4.8h4.7V15h-4.7v7.2
		c0,1.5,0.6,2.1,1.7,2c0.6,0,1.4-0.2,2.3-0.6L193.2,27.3z"/>
	<path class="st8" d="M212.2,21h-12.5c0.6,2.2,2.3,3.5,4.5,3.5c1.7,0,3.2-0.6,4.4-1.8l2.6,2.7c-1.8,1.9-4.3,3.1-7.5,3.1
		c-5.6,0-9.1-3.6-9.1-8.9c0-5.4,3.7-9,9-9C209.8,10.6,212.6,14.7,212.2,21z M207.5,18.1c-0.1-2.3-1.6-3.8-3.9-3.8
		c-2.2,0-3.7,1.5-4.1,3.8H207.5z"/>
	<path class="st8" d="M225.1,10.8h5.5l-5.6,8.5l6,9h-5.8l-3.5-5.7l-3.8,5.7h-5.5l6.1-8.9l-5.6-8.6h5.7l3.2,5.3L225.1,10.8z"/>
</g>
<g class="st6">
	<g>
		<path class="st8" d="M150.3,37.2l-0.7,1.4c-1.1-0.6-2.2-0.9-3-0.9c-1,0-1.7,0.4-1.7,1c0,2.1,5.6,1,5.6,4.5c0,1.7-1.6,2.8-3.9,2.8
			c-1.6,0-3.2-0.6-4.2-1.5l0.8-1.4c1.1,0.9,2.4,1.4,3.5,1.4c1.2,0,1.9-0.4,1.9-1.2c0-2.2-5.6-0.9-5.6-4.4c0-1.7,1.5-2.7,3.8-2.7
			C148.1,36.2,149.4,36.6,150.3,37.2z"/>
		<path class="st8" d="M160.1,37.8V46h-1.7v-8.2h-3.3v-1.5h8.3v1.5H160.1z"/>
		<path class="st8" d="M177.5,42c0,2.5-1.7,4.1-4.5,4.1c-2.8,0-4.5-1.5-4.5-4.1v-5.7h1.7V42c0,1.6,1.1,2.6,2.8,2.6
			c1.7,0,2.7-1,2.7-2.6v-5.7h1.7V42z"/>
		<path class="st8" d="M188.1,36.3c3.1,0,5.3,2,5.3,4.9c0,2.8-2.3,4.9-5.4,4.9h-4.2v-9.7H188.1z M185.6,44.5h2.5
			c2,0,3.5-1.4,3.5-3.4c0-2-1.6-3.4-3.6-3.4h-2.5V44.5z"/>
		<path class="st8" d="M199.2,46v-9.7h1.7V46H199.2z"/>
		<path class="st8" d="M217.6,41.1c0,2.8-2.4,4.9-5.5,4.9c-3.1,0-5.5-2.1-5.5-4.9c0-2.8,2.4-4.9,5.5-4.9
			C215.2,36.3,217.6,38.4,217.6,41.1z M208.4,41.1c0,1.9,1.7,3.4,3.7,3.4c2,0,3.7-1.5,3.7-3.4s-1.7-3.4-3.7-3.4
			C210.1,37.7,208.4,39.2,208.4,41.1z"/>
		<path class="st8" d="M230.3,37.2l-0.7,1.4c-1.1-0.6-2.2-0.9-3-0.9c-1,0-1.7,0.4-1.7,1c0,2.1,5.6,1,5.6,4.5c0,1.7-1.6,2.8-3.9,2.8
			c-1.6,0-3.2-0.6-4.2-1.5l0.8-1.4c1.1,0.9,2.4,1.4,3.5,1.4c1.2,0,1.9-0.4,1.9-1.2c0-2.2-5.6-0.9-5.6-4.4c0-1.7,1.5-2.7,3.8-2.7
			C228,36.2,229.3,36.6,230.3,37.2z"/>
	</g>
</g>
</svg>
