<?xml version="1.0" encoding="utf-8"?>
<!-- Generator: Adobe Illustrator 26.3.1, SVG Export Plug-In . SVG Version: 6.00 Build 0)  -->
<svg version="1.1" id="Capa_1" xmlns="http://www.w3.org/2000/svg" xmlns:xlink="http://www.w3.org/1999/xlink" x="0px" y="0px"
	 viewBox="0 0 154 32" style="enable-background:new 0 0 154 32;" xml:space="preserve">
<style type="text/css">
	.st0{opacity:0.8;}
	.st1{fill:#346A8A;}
	.st2{opacity:0.85;}
	.st3{fill:#FDCA09;}
	.st4{opacity:0.9;}
	.st5{fill:#5FA831;}
	.st6{opacity:0.95;}
	.st7{fill:#E95A0C;}
	.st8{fill:#2C3D46;}
	.st9{fill:#E75A10;}
</style>
<g>
	<g>
		<g class="st0">
			<path class="st1" d="M12.7,10.4c-2.6-2.6-6.4-4.4-9.1-5c-0.1,0-0.1,0-0.1-0.1c-0.1-0.1,0-0.1,0.1-0.2l3.5-3.6
				c0.6-0.6,6.1,1.6,9.5,5l2.2,2.2c3,2.9,5.1,8.2,4.5,8.9l-3.4,3.5c-0.1,0.1-0.2,0.1-0.3,0c-0.7-2.9-2.6-6.4-4.7-8.5L12.7,10.4z"/>
		</g>
		<g class="st2">
			<path class="st3" d="M14.2,13.9c2.6-2.6,4.4-6.4,5-9c0-0.1,0-0.1,0.1-0.1c0.1-0.1,0.1,0,0.2,0.1l3.6,3.5c0.6,0.6-1.6,6.1-5,9.5
				L15.9,20C13,23,7.7,25.1,7,24.4L3.5,21c-0.1-0.1-0.1-0.2,0-0.3C6.4,20,10,18.1,12,16.1L14.2,13.9z"/>
		</g>
		<g class="st4">
			<path class="st5" d="M10.9,15.7c2.6,2.6,6.4,4.4,9.1,5c0.1,0,0.1,0,0.1,0.1c0.1,0.1,0,0.1-0.1,0.2l-3.5,3.6
				c-0.6,0.6-6.1-1.6-9.5-5l-2.2-2.2c-3-2.9-5.1-8.2-4.4-8.9L3.7,5C3.8,4.9,3.9,4.9,4,5c0.7,2.9,2.6,6.4,4.7,8.5L10.9,15.7z"/>
		</g>
		<g class="st6">
			<path class="st7" d="M9,12c-2.6,2.6-4.4,6.4-5,9c0,0.1,0,0.1-0.1,0.1c-0.1,0.1-0.1,0-0.2-0.1l-3.6-3.5c-0.6-0.6,1.6-6.1,5-9.5
				l2.2-2.2c2.9-3,8.2-5.1,8.9-4.4l3.5,3.4c0.1,0.1,0.1,0.2,0,0.3c-2.9,0.7-6.4,2.6-8.5,4.7L9,12z"/>
		</g>
	</g>
	<g>
		<path class="st8" d="M42.6,13.1c0,3.5-2.1,5.9-5.4,5.9c-1.6,0-2.9-0.7-3.8-1.8v5.9h-3.3V7.2h3.3v1.7c0.8-1.2,2.1-1.8,3.7-1.8
			C40.4,7.1,42.6,9.5,42.6,13.1z M39.2,13c0-1.9-1.2-3.2-2.9-3.2s-2.9,1.3-2.9,3.2c0,1.9,1.2,3.2,2.9,3.2S39.2,14.9,39.2,13z"/>
		<path class="st8" d="M51.6,17.5c-0.8,1-2,1.5-3.7,1.5c-2.5,0-4-1.5-4-3.6c0-2.2,1.6-3.5,4.4-3.5h3.2v-0.2c0-1.2-0.8-1.9-2.4-1.9
			c-1,0-2.3,0.3-3.5,1l-1-2.3C46.4,7.5,47.9,7,49.9,7c3.1,0,4.9,1.6,4.9,4.2l0,7.6h-3.3L51.6,17.5L51.6,17.5z M51.6,14.9v-1h-2.6
			c-1.3,0-1.9,0.4-1.9,1.3c0,0.9,0.7,1.5,1.8,1.5C50.3,16.6,51.4,15.9,51.6,14.9z"/>
		<path class="st8" d="M61.1,9.3c0.8-1.4,2.1-2.2,3.9-2.2v3.1c-2.4-0.2-3.9,1.1-3.9,3v5.6h-3.3V7.2h3.3V9.3z"/>
		<path class="st8" d="M73.1,17.5c-0.8,1-2,1.5-3.7,1.5c-2.5,0-4-1.5-4-3.6c0-2.2,1.6-3.5,4.4-3.5h3.2v-0.2c0-1.2-0.8-1.9-2.4-1.9
			c-1,0-2.3,0.3-3.5,1l-1.1-2.3C67.9,7.5,69.4,7,71.4,7c3.1,0,4.9,1.6,4.9,4.2l0,7.6h-3.3L73.1,17.5L73.1,17.5z M73.1,14.9v-1h-2.6
			c-1.3,0-1.9,0.4-1.9,1.3c0,0.9,0.7,1.5,1.8,1.5C71.8,16.6,72.9,15.9,73.1,14.9z"/>
		<path class="st8" d="M91.9,13.1c0,3.5-2.1,5.9-5.4,5.9c-1.6,0-2.9-0.7-3.8-1.8v5.9h-3.3V7.2h3.3v1.7c0.8-1.2,2.1-1.8,3.7-1.8
			C89.7,7.1,91.9,9.5,91.9,13.1z M88.5,13c0-1.9-1.2-3.2-2.9-3.2c-1.7,0-2.9,1.3-2.9,3.2c0,1.9,1.2,3.2,2.9,3.2
			C87.4,16.2,88.5,14.9,88.5,13z"/>
		<path class="st8" d="M104.8,14h-8.4c0.4,1.5,1.5,2.3,3,2.3c1.1,0,2.1-0.4,3-1.2l1.8,1.8c-1.2,1.3-2.9,2.1-5,2.1
			c-3.7,0-6.1-2.4-6.1-5.9c0-3.6,2.5-6,6-6C103.2,7.1,105.1,9.8,104.8,14z M101.7,12.1c0-1.5-1-2.5-2.6-2.5c-1.5,0-2.5,1-2.7,2.5
			H101.7z"/>
		<path class="st8" d="M118.7,11.5v7.3h-3.3v-6.4c0-1.5-0.9-2.4-2.3-2.4c-1.7,0-2.7,1.3-2.7,3v5.7h-3.3V7.2h3.3v2
			c0.8-1.5,2.2-2.1,4-2.2C117,7.1,118.7,8.8,118.7,11.5z"/>
		<path class="st8" d="M128.8,18.2c-0.9,0.5-1.9,0.8-3,0.8c-2.1,0-3.7-1.2-3.7-3.6V10h-1.6V7.7h1.6V4.5h3.3v3.2h3.2V10h-3.2v4.8
			c0,1,0.4,1.4,1.1,1.3c0.4,0,1-0.1,1.6-0.4L128.8,18.2z"/>
		<path class="st8" d="M141.5,14h-8.4c0.4,1.5,1.5,2.3,3,2.3c1.1,0,2.1-0.4,3-1.2l1.8,1.8c-1.2,1.3-2.9,2.1-5,2.1
			c-3.7,0-6.1-2.4-6.1-5.9c0-3.6,2.5-6,6-6C139.8,7.1,141.7,9.8,141.5,14z M138.3,12.1c0-1.5-1-2.5-2.6-2.5c-1.5,0-2.5,1-2.7,2.5
			H138.3z"/>
		<path class="st8" d="M150.1,7.2h3.6l-3.7,5.7l4,6h-3.8l-2.3-3.8l-2.6,3.8h-3.7l4-6l-3.8-5.7h3.8l2.1,3.5L150.1,7.2z"/>
	</g>
	<g class="st6">
		<g>
			<path class="st9" d="M100.2,24.8l-0.5,1c-0.7-0.4-1.5-0.6-2-0.6c-0.7,0-1.1,0.2-1.1,0.7c0,1.4,3.7,0.7,3.7,3
				c0,1.2-1.1,1.9-2.6,1.9c-1.1,0-2.1-0.4-2.8-1l0.5-0.9c0.7,0.6,1.6,0.9,2.3,0.9c0.8,0,1.3-0.3,1.3-0.8c0-1.4-3.7-0.6-3.7-2.9
				c0-1.1,1-1.8,2.5-1.8C98.7,24.1,99.6,24.4,100.2,24.8z"/>
			<path class="st9" d="M106.8,25.2v5.5h-1.2v-5.5h-2.2v-1h5.5v1H106.8z"/>
			<path class="st9" d="M118.4,28c0,1.7-1.1,2.7-3,2.7c-1.9,0-3-1-3-2.7v-3.8h1.2V28c0,1.1,0.7,1.7,1.9,1.7c1.1,0,1.8-0.6,1.8-1.7
				v-3.8h1.2V28z"/>
			<path class="st9" d="M125.4,24.2c2.1,0,3.6,1.4,3.6,3.2c0,1.9-1.5,3.2-3.6,3.2h-2.8v-6.5H125.4z M123.7,29.7h1.7
				c1.3,0,2.4-0.9,2.4-2.2c0-1.3-1.1-2.3-2.4-2.3h-1.6V29.7z"/>
			<path class="st9" d="M132.8,30.7v-6.5h1.2v6.5H132.8z"/>
			<path class="st9" d="M145.1,27.4c0,1.8-1.6,3.3-3.7,3.3c-2.1,0-3.7-1.4-3.7-3.3c0-1.9,1.6-3.3,3.7-3.3
				C143.5,24.2,145.1,25.6,145.1,27.4z M138.9,27.4c0,1.3,1.1,2.3,2.5,2.3c1.3,0,2.5-1,2.5-2.3c0-1.3-1.1-2.3-2.5-2.3
				C140,25.1,138.9,26.1,138.9,27.4z"/>
			<path class="st9" d="M153.5,24.8l-0.5,1c-0.7-0.4-1.5-0.6-2-0.6c-0.7,0-1.1,0.2-1.1,0.7c0,1.4,3.7,0.7,3.7,3
				c0,1.2-1.1,1.9-2.6,1.9c-1.1,0-2.1-0.4-2.8-1l0.5-0.9c0.7,0.6,1.6,0.9,2.3,0.9c0.8,0,1.3-0.3,1.3-0.8c0-1.4-3.7-0.6-3.7-2.9
				c0-1.1,1-1.8,2.5-1.8C152,24.1,152.9,24.4,153.5,24.8z"/>
		</g>
	</g>
</g>
</svg>
