<?xml version="1.0" encoding="utf-8"?>
<!-- Generator: Adobe Illustrator 26.3.1, SVG Export Plug-In . SVG Version: 6.00 Build 0)  -->
<svg version="1.1" id="Capa_1" xmlns="http://www.w3.org/2000/svg" xmlns:xlink="http://www.w3.org/1999/xlink" x="0px" y="0px"
	 viewBox="0 0 32 32" style="enable-background:new 0 0 32 32;" xml:space="preserve">
<style type="text/css">
	.st0{opacity:0.8;}
	.st1{fill:#346A8A;}
	.st2{opacity:0.85;}
	.st3{fill:#FDCA09;}
	.st4{opacity:0.9;}
	.st5{fill:#5FA831;}
	.st6{opacity:0.95;}
	.st7{fill:#E95A0C;}
</style>
<g>
	<g class="st0">
		<path class="st1" d="M17.3,12.5C13.7,9,8.6,6.5,5,5.7c-0.1,0-0.1,0-0.2-0.1c-0.1-0.1,0-0.2,0.1-0.3l4.8-4.9
			c0.8-0.8,8.3,2.2,13,6.8l3,3c4.1,4,7,11.2,6.1,12.1l-4.6,4.7c-0.1,0.1-0.3,0.1-0.4,0c-1-3.9-3.6-8.8-6.4-11.6L17.3,12.5z"/>
	</g>
	<g class="st2">
		<path class="st3" d="M19.4,17.2c3.5-3.6,6.1-8.7,6.9-12.3c0-0.1,0-0.1,0.1-0.2c0.1-0.1,0.2,0,0.3,0.1l4.9,4.8
			c0.8,0.8-2.2,8.3-6.9,13l-3,3c-4,4.1-11.2,7-12.2,6L4.8,27c-0.1-0.1-0.1-0.3,0-0.4c3.9-1,8.8-3.5,11.6-6.4L19.4,17.2z"/>
	</g>
	<g class="st4">
		<path class="st5" d="M14.9,19.7c3.6,3.5,8.7,6,12.4,6.8c0.1,0,0.1,0,0.2,0.1c0.1,0.1,0,0.2-0.1,0.3l-4.8,4.9
			c-0.8,0.8-8.3-2.2-13-6.8l-3-3c-4.1-4-7-11.2-6.1-12.1L5,5.1C5.2,5,5.3,5,5.4,5.1c1,3.9,3.6,8.8,6.4,11.6L14.9,19.7z"/>
	</g>
	<g class="st6">
		<path class="st7" d="M12.3,14.7c-3.5,3.6-6,8.7-6.9,12.3c0,0.1,0,0.1-0.1,0.2c-0.1,0.1-0.2,0-0.3-0.1l-4.9-4.8
			C-0.7,21.5,2.4,14,7,9.3l3-3c4-4.1,11.2-7,12.2-6l4.7,4.7C27,5,27,5.2,26.8,5.3c-3.9,1-8.8,3.6-11.6,6.4L12.3,14.7z"/>
	</g>
</g>
</svg>
